<svg width="76" height="76" viewBox="0 0 76 76" fill="none" xmlns="http://www.w3.org/2000/svg">
<g filter="url(#filter0_dddddd_52_76)">
<path d="M13.1682 44.1137C10.9103 40.3506 10.9103 35.6494 13.1682 31.8863C13.8572 30.738 14.9986 29.9336 16.3118 29.671L21.6731 28.5987C21.8187 28.5696 21.8915 28.555 21.9598 28.5307C22.0825 28.4871 22.1955 28.4198 22.2924 28.3328C22.3463 28.2845 22.3938 28.2274 22.4889 28.1133L35.1708 12.895C36.3534 11.4759 36.9447 10.7664 37.4723 10.9574C38 11.1485 38 12.0721 38 13.9193L38 62.0807C38 63.9279 38 64.8515 37.4723 65.0426C36.9447 65.2336 36.3534 64.5241 35.1708 63.105L22.4889 47.8867C22.3938 47.7726 22.3463 47.7155 22.2924 47.6672C22.1955 47.5802 22.0825 47.5129 21.9598 47.4693C21.8915 47.445 21.8187 47.4304 21.6731 47.4013L16.3118 46.329C14.9986 46.0664 13.8572 45.262 13.1682 44.1137Z" fill="white"/>
<path d="M47.5 47.5L66.5 28.5" stroke="white" stroke-width="2" stroke-linecap="round"/>
<path d="M66.5 47.5L47.5 28.5" stroke="white" stroke-width="2" stroke-linecap="round"/>
</g>
<defs>
<filter id="filter0_dddddd_52_76" x="-7.6608" y="-7.6608" width="91.3216" height="91.3216" filterUnits="userSpaceOnUse" color-interpolation-filters="sRGB">
<feFlood flood-opacity="0" result="BackgroundImageFix"/>
<feColorMatrix in="SourceAlpha" type="matrix" values="0 0 0 0 0 0 0 0 0 0 0 0 0 0 0 0 0 0 127 0" result="hardAlpha"/>
<feOffset/>
<feGaussianBlur stdDeviation="0.0912"/>
<feColorMatrix type="matrix" values="0 0 0 0 1 0 0 0 0 1 0 0 0 0 1 0 0 0 1 0"/>
<feBlend mode="normal" in2="BackgroundImageFix" result="effect1_dropShadow_52_76"/>
<feColorMatrix in="SourceAlpha" type="matrix" values="0 0 0 0 0 0 0 0 0 0 0 0 0 0 0 0 0 0 127 0" result="hardAlpha"/>
<feOffset/>
<feGaussianBlur stdDeviation="0.1824"/>
<feColorMatrix type="matrix" values="0 0 0 0 1 0 0 0 0 1 0 0 0 0 1 0 0 0 1 0"/>
<feBlend mode="normal" in2="effect1_dropShadow_52_76" result="effect2_dropShadow_52_76"/>
<feColorMatrix in="SourceAlpha" type="matrix" values="0 0 0 0 0 0 0 0 0 0 0 0 0 0 0 0 0 0 127 0" result="hardAlpha"/>
<feOffset/>
<feGaussianBlur stdDeviation="0.6384"/>
<feColorMatrix type="matrix" values="0 0 0 0 1 0 0 0 0 1 0 0 0 0 1 0 0 0 1 0"/>
<feBlend mode="normal" in2="effect2_dropShadow_52_76" result="effect3_dropShadow_52_76"/>
<feColorMatrix in="SourceAlpha" type="matrix" values="0 0 0 0 0 0 0 0 0 0 0 0 0 0 0 0 0 0 127 0" result="hardAlpha"/>
<feOffset/>
<feGaussianBlur stdDeviation="1.2768"/>
<feColorMatrix type="matrix" values="0 0 0 0 1 0 0 0 0 1 0 0 0 0 1 0 0 0 1 0"/>
<feBlend mode="normal" in2="effect3_dropShadow_52_76" result="effect4_dropShadow_52_76"/>
<feColorMatrix in="SourceAlpha" type="matrix" values="0 0 0 0 0 0 0 0 0 0 0 0 0 0 0 0 0 0 127 0" result="hardAlpha"/>
<feOffset/>
<feGaussianBlur stdDeviation="2.1888"/>
<feColorMatrix type="matrix" values="0 0 0 0 1 0 0 0 0 1 0 0 0 0 1 0 0 0 1 0"/>
<feBlend mode="normal" in2="effect4_dropShadow_52_76" result="effect5_dropShadow_52_76"/>
<feColorMatrix in="SourceAlpha" type="matrix" values="0 0 0 0 0 0 0 0 0 0 0 0 0 0 0 0 0 0 127 0" result="hardAlpha"/>
<feOffset/>
<feGaussianBlur stdDeviation="3.8304"/>
<feColorMatrix type="matrix" values="0 0 0 0 1 0 0 0 0 1 0 0 0 0 1 0 0 0 1 0"/>
<feBlend mode="normal" in2="effect5_dropShadow_52_76" result="effect6_dropShadow_52_76"/>
<feBlend mode="normal" in="SourceGraphic" in2="effect6_dropShadow_52_76" result="shape"/>
</filter>
</defs>
</svg>
